<svg width="21" height="21" viewBox="0 0 21 21" fill="none" xmlns="http://www.w3.org/2000/svg">
<path d="M10.2857 19.5714C15.4141 19.5714 19.5714 15.4141 19.5714 10.2857C19.5714 5.15736 15.4141 1 10.2857 1C5.15736 1 1 5.15736 1 10.2857C1 15.4141 5.15736 19.5714 10.2857 19.5714Z" fill="#D7E0FF"/>
<path d="M10.2857 19.5714C15.4141 19.5714 19.5714 15.4141 19.5714 10.2857C19.5714 5.15736 15.4141 1 10.2857 1C5.15736 1 1 5.15736 1 10.2857C1 15.4141 5.15736 19.5714 10.2857 19.5714Z" stroke="#095BFB" stroke-linecap="round" stroke-linejoin="round"/>
<path d="M10.2856 6V14.5714" stroke="#095BFB" stroke-linecap="round" stroke-linejoin="round"/>
<path d="M6 10.2857H14.5714" stroke="#095BFB" stroke-linecap="round" stroke-linejoin="round"/>
</svg>
