<svg width="24" height="24" viewBox="0 0 24 24" fill="none" xmlns="http://www.w3.org/2000/svg">
<path d="M1.42947 19.1692L1.34033 12.1818C4.05062 7.75381 6.26205 5.21667 11.0569 1.9201C11.3343 1.72918 11.663 1.62695 11.9998 1.62695C12.3365 1.62695 12.6653 1.72918 12.9426 1.9201C17.7375 5.21495 19.9489 7.7521 22.6592 12.1801L22.5718 19.1675C22.4792 19.9652 22.12 20.7082 21.5526 21.2763C20.9851 21.8444 20.2424 22.2043 19.4449 22.2978C14.4968 22.8498 9.5027 22.8498 4.55462 22.2978C3.7574 22.204 3.01516 21.8439 2.44801 21.2758C1.88087 20.7077 1.522 19.9649 1.42947 19.1675V19.1692Z" fill="#D7E0FF"/>
<path d="M11.9996 13.8669C13.5767 13.8669 14.8573 15.1458 14.8573 16.7247V22.6595H9.14014V16.7247C9.14014 15.1475 10.4207 13.8669 11.9996 13.8669Z" fill="white"/>
<path d="M14.8576 22.6595V16.7263C14.867 16.345 14.8 15.9657 14.6605 15.6107C14.521 15.2558 14.312 14.9323 14.0456 14.6593C13.7792 14.3863 13.4609 14.1694 13.1095 14.0213C12.758 13.8732 12.3805 13.7969 11.9991 13.7969C11.6177 13.7969 11.2401 13.8732 10.8887 14.0213C10.5372 14.1694 10.2189 14.3863 9.95255 14.6593C9.68619 14.9323 9.47712 15.2558 9.33766 15.6107C9.1982 15.9657 9.13117 16.345 9.14051 16.7263V22.6595" stroke="#4147D5" stroke-linecap="round" stroke-linejoin="round"/>
<path d="M1.42947 19.1692L1.34033 12.1818C4.05062 7.75381 6.26205 5.21667 11.0569 1.9201C11.3343 1.72918 11.663 1.62695 11.9998 1.62695C12.3365 1.62695 12.6653 1.72918 12.9426 1.9201C17.7375 5.21495 19.9489 7.7521 22.6592 12.1801L22.5718 19.1675C22.4792 19.9652 22.12 20.7082 21.5526 21.2763C20.9851 21.8444 20.2424 22.2043 19.4449 22.2978C14.4968 22.8498 9.5027 22.8498 4.55462 22.2978C3.7574 22.204 3.01516 21.8439 2.44801 21.2758C1.88087 20.7077 1.522 19.9649 1.42947 19.1675V19.1692Z" stroke="#4147D5" stroke-linecap="round" stroke-linejoin="round"/>
</svg>
