<svg width="20" height="20" viewBox="0 0 20 20" fill="none" xmlns="http://www.w3.org/2000/svg">
<path d="M17.143 1.42859H2.85728C2.06831 1.42859 1.42871 2.06819 1.42871 2.85716V8.57145C1.42871 9.36042 2.06831 10 2.85728 10H17.143C17.932 10 18.5716 9.36042 18.5716 8.57145V2.85716C18.5716 2.06819 17.932 1.42859 17.143 1.42859Z" fill="#D7E0FF"/>
<path d="M17.143 10H2.85728C2.06831 10 1.42871 10.6396 1.42871 11.4286V17.1429C1.42871 17.9319 2.06831 18.5714 2.85728 18.5714H17.143C17.932 18.5714 18.5716 17.9319 18.5716 17.1429V11.4286C18.5716 10.6396 17.932 10 17.143 10Z" fill="#D7E0FF"/>
<path d="M4.99993 6.42857C5.39442 6.42857 5.71422 6.10877 5.71422 5.71429C5.71422 5.3198 5.39442 5 4.99993 5C4.60544 5 4.28564 5.3198 4.28564 5.71429C4.28564 6.10877 4.60544 6.42857 4.99993 6.42857Z" stroke="#065AFC" stroke-linecap="round" stroke-linejoin="round"/>
<path d="M10.7144 5.71429H15.7144" stroke="#065AFC" stroke-linecap="round" stroke-linejoin="round"/>
<path d="M17.143 1.42859H2.85728C2.06831 1.42859 1.42871 2.06819 1.42871 2.85716V8.57145C1.42871 9.36042 2.06831 10 2.85728 10H17.143C17.932 10 18.5716 9.36042 18.5716 8.57145V2.85716C18.5716 2.06819 17.932 1.42859 17.143 1.42859Z" stroke="#065AFC" stroke-linecap="round" stroke-linejoin="round"/>
<path d="M17.143 10H2.85728C2.06831 10 1.42871 10.6396 1.42871 11.4286V17.1429C1.42871 17.9319 2.06831 18.5714 2.85728 18.5714H17.143C17.932 18.5714 18.5716 17.9319 18.5716 17.1429V11.4286C18.5716 10.6396 17.932 10 17.143 10Z" stroke="#065AFC" stroke-linecap="round" stroke-linejoin="round"/>
<path d="M4.99993 15C5.39442 15 5.71422 14.6802 5.71422 14.2858C5.71422 13.8913 5.39442 13.5715 4.99993 13.5715C4.60544 13.5715 4.28564 13.8913 4.28564 14.2858C4.28564 14.6802 4.60544 15 4.99993 15Z" stroke="#065AFC" stroke-linecap="round" stroke-linejoin="round"/>
<path d="M10.7144 14.2857H15.7144" stroke="#065AFC" stroke-linecap="round" stroke-linejoin="round"/>
</svg>
